# xmcd CD database file
#
# Track frame offsets:
#	150
#	13681
#	29334
#	45942
#	59794
#	72793
#	82832
#	92956
#	106708
#	120829
#	138779
#	153410
#	166449
#	182684
#
# Disc length: 2663 seconds
#
# Revision: 0
# Processed by: cddbd v1.5.1PL2 Copyright (c) Steve Scherf et al.
# Submitted via: CDex 1.51
#
DISCID=a60a650e
DTITLE=Jan and Steve - Country Keys And Strings
DYEAR=2000
DGENRE=Country
TTITLE0=Under Your Spell Again
TTITLE1=New Moon Over Your Shoulder
TTITLE2=Wine Wine Wine
TTITLE3=I'll Never Stop Wanting You
TTITLE4=I Cried My Last Tear For You
TTITLE5=Waltz Across Texas
TTITLE6=Turn Out The Lights
TTITLE7=I Meant Every Word He Said
TTITLE8=Losing Side Of Me
TTITLE9=When The Girl In Your Arms
TTITLE10=Sailor
TTITLE11=On The Other Hand
TTITLE12=Lucky Lips
TTITLE13=Maggie
EXTD=YEAR: 2000
EXTT0=
EXTT1=
EXTT2=
EXTT3=
EXTT4=
EXTT5=
EXTT6=
EXTT7=
EXTT8=
EXTT9=
EXTT10=
EXTT11=
EXTT12=
EXTT13=
PLAYORDER=
